<svg xmlns="http://www.w3.org/2000/svg" fill="none" viewBox="0 0 600 600"><path fill="url(#a)" d="M596.529 278.057c-.463-5.84-13.45-7.288-19.074-15.885-1.772-2.696-2.234-7.118-2.234-11.955 0-4.222.339-8.736.493-12.695.37-9.275-.015-14.375.077-30.059.077-12.448-1.463-26.253-7.195-29.488-5.315-3.02-13.897 2.85-26.083 14.051-6.795 6.255-11.262 11.647-15.915 15.499-.278.231-.555.477-.848.709-.277.215-7.256-1.587-11.339-2.404-.878-.169-1.417-1.202-1.864-3.02-.986-4.082-1.51-12.217-4.36-24.111-3.544-14.806-8.351-22.047-15.299-22.648-5.855-.493-16.008 14.251-23.834 26.592-6.486 10.215-6.964 11.262-9.491 14.945-1.849 2.68-3.959 5.854-6.255 9.043-4.73 6.563-10.184 13.111-15.407 15.191-9.86 3.914-17.471-1.356-21.138 3.189-3.512 4.36.309 5.177 1.094 5.932 21.123 5.331 26.176 33.463 35.944 31.029 8.32-2.08 13.804 6.764 30.952 8.905 17.055 2.126 19.012 11.324 31.8 8.936 26.915-5.007 49.424-6.224 75.554 3.282-1.341-2.05 4.714-1.279 4.422-5.038"/><path fill="url(#b)" d="M553.359 225.365c8.843 10.246 17.964 20.63 21.862 24.867 0-4.222.339-8.736.493-12.695.37-9.275-.015-14.375.077-30.059.077-12.448-1.464-26.253-7.195-29.488-5.315-3.02-13.897 2.85-26.083 14.051-6.795 6.255-11.263 11.647-15.915 15.499 5.546 1.987 17.625 7.241 26.761 17.825"/><path fill="url(#c)" d="M512.563 202.81c-.986-4.082-1.51-12.217-4.36-24.111-3.544-14.806-8.351-22.047-15.299-22.648-5.855-.493-16.008 14.251-23.834 26.592-6.486 10.215-6.964 11.262-9.491 14.945-1.848 2.68-3.959 5.854-6.255 9.043 6.702-1.109 18.673-3.251 30.398-5.423 11.555-2.157 22.308-.2 28.825 1.602z"/><path fill="url(#d)" d="M592.107 283.094c-25.421-9.244-47.653-8.335-73.952-3.559-2.65.478-4.807.909-7.703.54 5.885 6.27-11.247 22.478-31.615 18.596-6.948-1.325-12.572-3.467-17.055-6.071-15.037-8.766-16.747-22.647-11.278-29.719.247-.308.493-.632.771-.955-8.274-2.388-14.19-26.099-33.417-30.952.169.154.2.308 0 .493-1.895 1.787-9.907-1.68-11.894 3.512-1.618 4.253 6.979 5.023 6.347 6.995-.878 2.696-7.041 2.018-7.857 4.73-1.371 4.529 1.571 4.252 9.074 11.046 3.79 3.421 8.721 8.644 14.868 17.179 9.768 13.589 10.43 44.741 9.228 66.141-.6 10.707-6.054 34.511-6.671 47.083-.647 12.926.709 24.558 1.033 34.803.077 5.023 0 12.033-1.171 16.994-2.928 14.744-11.632 17.101-14.806 36.483-4.776 29.165 26.962 40.119 26.623 40.211-.077.016-.185.046-.309.077 1.618.185 3.205.385 4.746.57 6.933.848 12.957 1.649 18.133 2.373 2.003.277 4.129.555 5.901.816-.539 3.19-1.386 6.887-2.203 9.275-1.14 3.344-2.326 9.429-.662 12.218 3.327 5.623 23.957 4.776 24.912-1.864.478-3.236.786-7.195.971-11.679v.047c2.342-.108 2.496-.077 4.021.015.015.662.262 6.825.97 11.617.971 6.64 21.585 7.487 24.913 1.864 1.649-2.773.493-8.859-.662-12.218-.54-1.571-1.11-3.79-1.587-6.07 2.588-.524 32.539-6.656 35.065-7.056.031-.123.201-.231.509-.339 13.727-4.745 29.303-25.76 22.108-45.404-4.113-11.246-11.755-16.577-16.038-24.08-8.859-15.546-2.095-19.182-5.993-60.672-1.695-18.072-6.44-39.364-8.366-50.38-3.821-21.877 1.125-21.738 14.02-25.328 16.639-4.638 22.309-1.71 24.543-6.918 1.063-2.449-2.897-4.175-2.034-6.702 1.371-3.959 12.48-.662 13.296-4.776 1.048-5.284-5.469-6.948-6.763-8.92z"/><path fill="url(#e)" d="M592.107 283.094c-25.421-9.244-47.653-8.335-73.952-3.559-2.65.478-4.807.909-7.703.54 5.885 6.27-11.247 22.478-31.615 18.596-6.948-1.325-12.572-3.467-17.055-6.071-15.037-8.766-16.747-22.647-11.278-29.719.247-.308.493-.632.771-.955-8.274-2.388-14.19-26.099-33.417-30.952.169.154.2.308 0 .493-1.895 1.787-9.907-1.68-11.894 3.512-1.618 4.253 6.979 5.023 6.347 6.995-.878 2.696-7.041 2.018-7.857 4.73-1.371 4.529 1.571 4.252 9.074 11.046 3.79 3.421 8.721 8.644 14.868 17.179 9.768 13.589 10.43 44.741 9.228 66.141-.6 10.707-6.054 34.511-6.671 47.083-.647 12.926.709 24.558 1.033 34.803.077 5.023 0 12.033-1.171 16.994-2.928 14.744-11.632 17.101-14.806 36.483-4.776 29.165 26.962 40.119 26.623 40.211-.077.016-.185.046-.309.077 1.618.185 3.205.385 4.746.57 6.933.848 12.957 1.649 18.133 2.373 2.003.277 4.129.555 5.901.816-.539 3.19-1.386 6.887-2.203 9.275-1.14 3.344-2.326 9.429-.662 12.218 3.327 5.623 23.957 4.776 24.912-1.864.478-3.236.786-7.195.971-11.679v.047c2.342-.108 2.496-.077 4.021.015.015.662.262 6.825.97 11.617.971 6.64 21.585 7.487 24.913 1.864 1.649-2.773.493-8.859-.662-12.218-.54-1.571-1.11-3.79-1.587-6.07 2.588-.524 32.539-6.656 35.065-7.056.031-.123.201-.231.509-.339 13.727-4.745 29.303-25.76 22.108-45.404-4.113-11.246-11.755-16.577-16.038-24.08-8.859-15.546-2.095-19.182-5.993-60.672-1.695-18.072-6.44-39.364-8.366-50.38-3.821-21.877 1.125-21.738 14.02-25.328 16.639-4.638 22.309-1.71 24.543-6.918 1.063-2.449-2.897-4.175-2.034-6.702 1.371-3.959 12.48-.662 13.296-4.776 1.048-5.284-5.469-6.948-6.763-8.92z" opacity=".6"/><path fill="url(#f)" d="M465.465 519.663a1048 1048 0 0 0-18.134-2.372c-1.54-.185-3.112-.385-4.745-.57-1.987.416-10.153 1.741-16.1 9.013-2.111 2.572-2.819 4.591-2.835 6.255 0 1.109.293 2.064.724 2.896 1.957 3.806 11.478 3.436 16.979 1.972 3.112-.832 7.148-1.756 11.632-2.65 4.884-.97 10.291-1.91 15.622-2.65.17-.601.339-1.201.555-1.802.785-2.296 1.648-5.978 2.187-9.229-1.818-.277-3.805-.555-5.9-.863z"/><path fill="url(#g)" d="M570.754 526.565c-1.248-1.525-3.405-3.25-6.903-5.284-4.437-2.573-8.396-3.713-7.857-4.499-.709.108-1.417.231-2.157.385-15.037 3.051-25.144 4.807-31.969 5.793.509 2.542 1.156 5.069 1.741 6.795.2.585.385 1.171.539 1.756l.185.74c13.127 2.002 18.904 4.483 29.458 5.022 11.817.601 15.484-.585 17.486-4.129 1.079-1.926 1.618-3.959-.523-6.579"/><path fill="url(#h)" d="M470.902 479.653c-5.038-19.12-20.537-34.018-40.042-38.332a34 34 0 0 1-1.032 3.544c0 .046-.031.077-.046.123-.586 1.695-1.264 3.343-2.142 4.915-4.314 7.826-9.213 13.296-11.37 26.545-4.776 29.165 26.962 40.119 26.623 40.212-.077.015-.185.046-.308.077 1.617.185 3.204.385 4.745.57 6.933.847 12.957 1.649 18.133 2.373a52.5 52.5 0 0 0 6.625-18.981c-.184-6.41-.6-13.574-1.186-21.046" opacity=".38"/><path fill="url(#i)" d="M492.025 460.255c-1.032 1.233-1.648 9.321-2.973 9.999-1.063.539-1.587-6.348-2.681-12.556-.293-1.68-1.433-7.118-1.726-8.736-1.386-7.78-1.402-7.164-2.557-13.512-.231 5.069-.693 6.425-1.618 14.19-.447 3.774-1.094 8.304-1.618 10.815-.462 2.188-1.186-5.962-1.617-8.104-2.157-10.399-3.667-13.188-6.579-23.541-1.648-5.855-6.81-11.262-7.318-14.991 2.357 15.977 5.762 42.415 7.595 65.848.586 7.457 1.002 14.621 1.187 21.046.169 6.163.123 11.663-.231 16.069a49 49 0 0 1-.493 3.775c-.54 3.251-1.402 6.933-2.188 9.228q-.3.902-.555 1.803c-1.202 4.437-1.202 8.566-.108 10.415 3.328 5.623 23.958 4.776 24.913-1.864.478-3.251.786-7.211.971-11.709.693-16.948-.493-41.845-2.373-68.16z"/><path fill="url(#j)" d="M524.163 531.511a25 25 0 0 0-.539-1.756c-.601-1.741-1.233-4.268-1.741-6.795-.447-2.234-.816-4.483-.955-6.193-1.864-23.403 4.699-76.987 8.551-102.948-.509 3.744-5.67 9.136-7.319 14.991-2.911 10.353-4.421 13.142-6.578 23.541-.447 2.157-1.156 10.307-1.618 8.104-.539-2.511-1.171-7.041-1.618-10.815-.924-7.781-1.386-9.121-1.617-14.19-1.156 6.348-1.156 5.747-2.558 13.512-.293 1.602-1.417 7.041-1.725 8.736-1.094 6.224-1.618 13.095-2.681 12.556-1.34-.678-1.941-8.766-2.974-9.999-1.879 26.299-3.066 51.196-2.372 68.144.185 4.499.493 8.473.97 11.724.971 6.641 21.585 7.488 24.913 1.864 1.032-1.756 1.078-5.561.062-9.737-.062-.246-.108-.493-.185-.739z"/><path fill="url(#k)" d="M494.336 336.495s-21.831 16.131-15.946 53.815c4.714 30.182 8.566 37.161 11.539 56.312 2.974 19.15 6.148 41.259 6.148 41.259s2.681-21.385 6.286-41.752c2.573-14.559 7.734-34.157 10.507-57.714 4.453-37.931-18.534-51.936-18.534-51.936z" opacity=".6"/><path fill="#FFC635" d="M472.953 251.849c12.525 1.68 21.43 21.015 35.358 26.793 11.124 4.606-7.257 24.281-29.458 20.028-29.904-5.7-35.635-26.345-28.332-35.789 3.913-5.069 11.924-12.449 22.432-11.032"/><path fill="#00073A" d="M472.567 254.963c-4.467-1.464-7.58-.339-8.936 1.232-1.663 1.926-1.417 7.164 4.068 8.967 5.207 1.71 9.752-1.633 9.953-4.299.138-1.895-1.156-4.622-5.1-5.9z"/><path fill="url(#l)" d="M523.547 243.175c5.377 1.51 7.211 6.055 2.358 15.977-3.806 7.796-7.195 7.441-12.249 5.947-2.65-.786-5.823-4.838-2.942-10.785 3.928-8.119 7.21-12.71 12.833-11.124z"/><path fill="#fff" d="M516.002 258.279c.641-1.343.159-2.911-1.077-3.501-1.236-.591-2.759.02-3.4 1.364-.642 1.344-.16 2.912 1.077 3.502s2.758-.021 3.4-1.365"/><path fill="url(#m)" d="M478.991 224.657c7.087 1.649 6.301 7.842 1.448 17.024-3.035 5.747-6.332 5.608-11.37 4.114-2.635-.77-6.132-3.651-2.018-11.524 3.328-6.394 7.487-10.662 11.955-9.614z"/><path fill="#fff" d="M472.289 239.879c.66-1.382.167-2.993-1.1-3.598-1.266-.605-2.829.026-3.488 1.408-.66 1.382-.168 2.993 1.099 3.598 1.267.604 2.829-.026 3.489-1.408"/><path fill="#7543E3" d="M433.418 478.436v68.79c0 11.941-9.706 21.647-21.647 21.647H156.313c-11.94 0-21.646-9.706-21.646-21.647v-68.79z"/><path fill="#FCF5F0" d="M433.418 53.735v416.612H134.667V53.735c0-11.925 9.706-21.646 21.646-21.646h255.458c11.941 0 21.647 9.721 21.647 21.646"/><path fill="url(#n)" d="M153.803 141.46c25.144-.262 28.287-4.422 34.234-4.483 3.235-.031 14.174.308 23.295-1.171 9.644-1.556 16.207-1.402 19.581-7.072 4.931-8.289-.169-13.943-7.04-17.301-5.516-2.681-12.88-3.482-18.812-5.162-7.796-2.203-11.755-3.774-16.254-6.193-9.198-4.93-22.093-5.9-27.871-5.423-15.668 1.31-22.493 3.158-26.268 4.96v38.502c4.175 1.602 8.489 3.436 19.135 3.312z"/><path fill="url(#o)" d="M415.501 401.847c-31.676 2.65-20.599 7.903-33.556 8.936-10.06.801-17.887 6.07-21.261 12.926-4.838 9.891 11.709 12.603 23.279 12.864 10.415.232 10.076 4.9 25.514 4.746 14.22-.154 20.106-1.772 23.942-2.851v-34.356c-6.748-2.142-14.143-2.573-17.934-2.265z"/><path fill="url(#p)" d="M252.805 357.137c4.098-.338 13.265.355 19.798 3.852 3.204 1.726 6.008 2.835 11.555 4.406 4.206 1.187 9.444 1.757 13.357 3.667 4.884 2.373 8.52 6.409 5.008 12.295-2.404 4.021-7.057 3.913-13.913 5.022-6.486 1.048-14.251.801-16.562.832-4.221.047-6.455 2.989-24.327 3.189-12.988.139-12.711-3.79-21.477-3.99-9.737-.216-23.68-2.511-19.597-10.831 2.835-5.762 9.429-10.214 17.887-10.877 10.908-.863 1.571-5.284 28.256-7.518z"/><path fill="url(#q)" d="M338.944 160.41c5.454-.462 17.672.462 26.376 5.131 4.283 2.295 8.012 3.774 15.392 5.854 5.608 1.587 12.587 2.342 17.81 4.884 6.501 3.174 11.339 8.535 6.671 16.377-3.205 5.362-9.398 5.223-18.534 6.687-8.644 1.386-18.997 1.063-22.047 1.094-5.624.061-8.613 3.99-32.416 4.237-17.302.184-16.917-5.054-28.61-5.316-12.988-.292-31.553-3.343-26.115-14.436 3.76-7.688 12.572-13.604 23.85-14.497 14.529-1.156 2.095-7.041 37.639-10.015z"/><path fill="url(#r)" d="M329.192 248.104c3.081.616 12.834-1.109 21.831.431 12.603 2.173 28.564 16.285 30.536 25.175 5.269 23.68-28.21 28.887-51.843 30.705-21.262 1.634-4.545 4.391-36.083 5.763-43.385 1.879-51.551-6.209-61.796-5.763-5.577.247-14.097 2.296-29.966.617-16.778-1.772-28.071-.909-34.434-10.354-9.29-13.819-.323-42.352 29.15-45.049 13.927-1.278 15.606-.077 23.156-4.668 15.406-9.367 40.519-13.928 50.518-13.681 42.107 1.048 40.52 13.157 58.946 16.839z"/><path fill="#00073A" d="M411.771 24H156.313c-16.424 0-29.735 13.311-29.735 29.735v493.491c0 16.424 13.311 29.735 29.735 29.735h255.458c16.424 0 29.735-13.311 29.735-29.735V53.735C441.506 37.31 428.195 24 411.771 24m21.646 523.226c0 11.94-9.706 21.646-21.646 21.646H156.313c-11.94 0-21.646-9.706-21.646-21.646v-68.791h298.75zm0-76.879h-298.75V53.735c0-11.925 9.706-21.646 21.646-21.646h255.458c11.94 0 21.646 9.721 21.646 21.646zm-267.629 43.231a16.2 16.2 0 0 1 4.745-11.463c2.943-2.927 6.98-4.745 11.463-4.745H383.13c8.951 0 16.208 7.257 16.208 16.208a16.2 16.2 0 0 1-4.745 11.463 16.2 16.2 0 0 1-11.463 4.745H181.996c-8.951 0-16.208-7.257-16.208-16.208"/><path fill="url(#s)" d="M126.595 496.537s-19.366-.077-33.078-4.575c-45.08-14.76-69.623-42.908-84.89-75.925C3.202 404.328 1 384.408 1 384.408s3.282 3.05 7.75 6.547c3.543 2.774 6.116 3.683 6.116 3.683s-2.866-6.256-4.637-15.392c-6.286-32.338 1.094-55.695 15.114-79.868 19.366-33.386 38.316-46.898 47.76-73.567 3.374-9.552 4.314-17.24 1.942-24.543-2.835-8.751-19.86-15.329-19.86-15.329s24.759-8.058 54.586 7.595c17.148 8.998 32.323 20.63 41.29 33.756 22.293 32.632 25.144 53.508 18.935 92.748-5.885 37.146-29.658 68.344-38.517 84.182-1.541 2.758-4.868 11.971-4.868 13.728v78.574z"/><path fill="url(#t)" d="M148.826 269.505c-4.129-15.083-6.671-19.304-15.222-32.4-5.762-8.843-11.339-12.603-11.339-12.603l3.959 11.91 2.851 11.262c1.602 1.048-4.961-7.765-15.053-17.748-7.087-7.01-17.995-11.725-17.995-11.725s9.183 13.265 15.068 26.33 8.474 40.458 7.149 48.562c-2.388 14.636 17.748 9.075 26.592 10.677s8.15-10.384 3.975-34.295z" opacity=".7"/><path fill="url(#u)" d="M126.595 459.777c-4.345-2.188-8.613-4.561-12.711-7.149-11.201-7.072-20.136-14.636-29.119-26.161-4.298-5.515-10.507-18.411-10.507-18.411s12.233 12.819 19.52 17.872c6.101 4.222 19.844 9.583 19.844 9.583s-10.708-8.443-15.314-13.111c-11.047-11.216-19.166-24.05-24.543-37.87-8.18-21.061-9.999-44.402-6.07-67.758 1.51-8.951 6.994-26.715 6.994-26.715s-16.716 15.93-22.925 31.352c-8.057 20.044-7.025 43.894-7.025 43.894s-4.776-7.827-6.949-12.295c-2.002-4.113-4.067-13.373-4.067-13.373s-3.02 11.817-3.174 25.344c-.277 24.497 3.205 43.601 15.068 64.708 9.768 17.348 34.25 36.437 61.673 48.269 5.901 2.543 12.541 4.16 19.274 5.27v-23.434z"/><defs><linearGradient id="a" x1="538.353" x2="476.803" y1="153.663" y2="342.688" gradientUnits="userSpaceOnUse"><stop offset=".17" stop-color="#F60"/><stop offset=".54" stop-color="#FF9C00"/><stop offset=".9" stop-color="#FF6700"/><stop offset=".91" stop-color="#F60"/></linearGradient><linearGradient id="b" x1="555.003" x2="587.901" y1="222.654" y2="170.554" gradientUnits="userSpaceOnUse"><stop stop-color="#F60" stop-opacity="0"/><stop offset=".11" stop-color="#F60" stop-opacity=".3"/><stop offset=".23" stop-color="#F60" stop-opacity=".6"/><stop offset=".32" stop-color="#F60" stop-opacity=".82"/><stop offset=".4" stop-color="#F60" stop-opacity=".95"/><stop offset=".43" stop-color="#F60"/><stop offset=".72" stop-color="#FD4737"/><stop offset="1" stop-color="#FB2872"/></linearGradient><linearGradient id="c" x1="483.235" x2="490.546" y1="200.253" y2="138.942" gradientUnits="userSpaceOnUse"><stop stop-color="#F60" stop-opacity="0"/><stop offset=".03" stop-color="#F60" stop-opacity=".17"/><stop offset=".07" stop-color="#F60" stop-opacity=".36"/><stop offset=".11" stop-color="#F60" stop-opacity=".53"/><stop offset=".15" stop-color="#F60" stop-opacity=".68"/><stop offset=".2" stop-color="#F60" stop-opacity=".8"/><stop offset=".24" stop-color="#F60" stop-opacity=".89"/><stop offset=".29" stop-color="#F60" stop-opacity=".95"/><stop offset=".35" stop-color="#F60" stop-opacity=".99"/><stop offset=".42" stop-color="#F60"/><stop offset=".7" stop-color="#FD4737"/><stop offset=".97" stop-color="#FB2872"/></linearGradient><linearGradient id="d" x1="501.562" x2="501.562" y1="225.196" y2="564.99" gradientUnits="userSpaceOnUse"><stop stop-color="#F60"/><stop offset=".01" stop-color="#FF7408"/><stop offset=".04" stop-color="#FF8A14"/><stop offset=".07" stop-color="#FF9B1D"/><stop offset=".11" stop-color="#FFA724"/><stop offset=".17" stop-color="#FFAE27"/><stop offset=".33" stop-color="#FFB029"/><stop offset=".46" stop-color="#FF9218"/><stop offset=".63" stop-color="#F60"/><stop offset=".64" stop-color="#FE5D0F"/><stop offset=".69" stop-color="#FD4A32"/><stop offset=".74" stop-color="#FC3B4E"/><stop offset=".79" stop-color="#FB3062"/><stop offset=".84" stop-color="#FB2A6E"/><stop offset=".89" stop-color="#FB2872"/></linearGradient><linearGradient id="e" x1="501.562" x2="501.562" y1="225.196" y2="564.99" gradientUnits="userSpaceOnUse"><stop stop-color="#FFEB49" stop-opacity=".8"/><stop offset=".22" stop-color="#FFD13A" stop-opacity=".64"/><stop offset=".7" stop-color="#FF8F17" stop-opacity=".25"/><stop offset="1" stop-color="#F60" stop-opacity="0"/></linearGradient><linearGradient id="f" x1="579.089" x2="371.9" y1="474.584" y2="557.148" gradientUnits="userSpaceOnUse"><stop offset=".02" stop-color="#BE0449" stop-opacity="0"/><stop offset=".51" stop-color="#FB2872"/><stop offset=".67" stop-color="#A31C5E"/><stop offset=".83" stop-color="#4C104A"/><stop offset=".94" stop-color="#15093E"/><stop offset="1" stop-color="#00073A"/></linearGradient><linearGradient id="g" x1="463.015" x2="604.402" y1="494.35" y2="549.629" gradientUnits="userSpaceOnUse"><stop stop-color="#BE0449" stop-opacity="0"/><stop offset=".41" stop-color="#FB2872"/><stop offset="1" stop-color="#00073A"/></linearGradient><linearGradient id="i" x1="477.096" x2="483.12" y1="415.899" y2="576.052" gradientUnits="userSpaceOnUse"><stop offset=".01" stop-color="#BE0449" stop-opacity="0"/><stop offset=".06" stop-color="#BF054A" stop-opacity=".04"/><stop offset=".14" stop-color="#C2084C" stop-opacity=".16"/><stop offset=".23" stop-color="#C70D51" stop-opacity=".36"/><stop offset=".35" stop-color="#CE1457" stop-opacity=".63"/><stop offset=".48" stop-color="#D71E5F" stop-opacity=".97"/><stop offset=".49" stop-color="#D81F60"/><stop offset=".56" stop-color="#D31E5F"/><stop offset=".63" stop-color="#C71D5D"/><stop offset=".7" stop-color="#B31A59"/><stop offset=".77" stop-color="#971754"/><stop offset=".84" stop-color="#73134E"/><stop offset=".91" stop-color="#460E46"/><stop offset=".98" stop-color="#13093D"/><stop offset="1" stop-color="#00073A"/></linearGradient><linearGradient id="j" x1="516.46" x2="509.804" y1="386.534" y2="577.238" gradientUnits="userSpaceOnUse"><stop stop-color="#D81F60" stop-opacity="0"/><stop offset=".11" stop-color="#D81F60" stop-opacity=".01"/><stop offset=".19" stop-color="#D81F60" stop-opacity=".06"/><stop offset=".27" stop-color="#D81F60" stop-opacity=".14"/><stop offset=".35" stop-color="#D81F60" stop-opacity=".25"/><stop offset=".42" stop-color="#D81F60" stop-opacity=".39"/><stop offset=".49" stop-color="#D81F60" stop-opacity=".57"/><stop offset=".55" stop-color="#D81F60" stop-opacity=".77"/><stop offset=".62" stop-color="#D81F60"/><stop offset=".66" stop-color="#D21E5F"/><stop offset=".71" stop-color="#C21C5C"/><stop offset=".77" stop-color="#A81957"/><stop offset=".83" stop-color="#841551"/><stop offset=".9" stop-color="#551049"/><stop offset=".97" stop-color="#1D0A3F"/><stop offset="1" stop-color="#00073A"/></linearGradient><linearGradient id="k" x1="494.967" x2="501.469" y1="368.679" y2="511.715" gradientUnits="userSpaceOnUse"><stop stop-color="#FFEB49"/><stop offset=".09" stop-color="#FFE745" stop-opacity=".96"/><stop offset=".24" stop-color="#FFDE3D" stop-opacity=".84"/><stop offset=".44" stop-color="#FFCF2F" stop-opacity=".66"/><stop offset=".67" stop-color="#FFBB1C" stop-opacity=".4"/><stop offset=".94" stop-color="#FFA105" stop-opacity=".07"/><stop offset="1" stop-color="#FF9C00" stop-opacity="0"/></linearGradient><linearGradient id="l" x1="524.04" x2="516.291" y1="235.472" y2="265.53" gradientUnits="userSpaceOnUse"><stop offset=".16" stop-color="#A030B9"/><stop offset=".88" stop-color="#00073A"/></linearGradient><linearGradient id="m" x1="479.777" x2="472.274" y1="218.695" y2="243.808" gradientUnits="userSpaceOnUse"><stop offset=".16" stop-color="#A030B9"/><stop offset=".88" stop-color="#00073A"/></linearGradient><linearGradient id="n" x1="186.927" x2="179.979" y1="162.629" y2="90.818" gradientUnits="userSpaceOnUse"><stop stop-color="#D0CED3"/><stop offset=".29" stop-color="#D9D7DB"/><stop offset=".77" stop-color="#F1F1F2"/><stop offset="1" stop-color="#fff"/></linearGradient><linearGradient id="o" x1="397.46" x2="396.52" y1="460.392" y2="409.797" gradientUnits="userSpaceOnUse"><stop stop-color="#D0CED3"/><stop offset=".29" stop-color="#D9D7DB"/><stop offset=".77" stop-color="#F1F1F2"/><stop offset="1" stop-color="#fff"/></linearGradient><linearGradient id="p" x1="255.455" x2="254.654" y1="406.1" y2="363.5" gradientUnits="userSpaceOnUse"><stop stop-color="#D0CED3"/><stop offset=".29" stop-color="#D9D7DB"/><stop offset=".77" stop-color="#F1F1F2"/><stop offset="1" stop-color="#fff"/></linearGradient><linearGradient id="q" x1="342.472" x2="341.409" y1="225.627" y2="168.884" gradientUnits="userSpaceOnUse"><stop stop-color="#D0CED3"/><stop offset=".29" stop-color="#D9D7DB"/><stop offset=".77" stop-color="#F1F1F2"/><stop offset="1" stop-color="#fff"/></linearGradient><linearGradient id="r" x1="273.712" x2="272.557" y1="335.522" y2="243.867" gradientUnits="userSpaceOnUse"><stop stop-color="#D0CED3"/><stop offset=".29" stop-color="#D9D7DB"/><stop offset=".77" stop-color="#F1F1F2"/><stop offset="1" stop-color="#fff"/></linearGradient><linearGradient id="s" x1="86.923" x2="86.923" y1="183.89" y2="496.537" gradientUnits="userSpaceOnUse"><stop stop-color="#FFEB49"/><stop offset=".32" stop-color="#FF9B1D"/><stop offset=".56" stop-color="#F60"/><stop offset=".74" stop-color="#FD4835"/><stop offset=".91" stop-color="#FB3161"/><stop offset="1" stop-color="#FB2872"/></linearGradient><linearGradient id="t" x1="97.001" x2="136.534" y1="216.331" y2="285.633" gradientUnits="userSpaceOnUse"><stop offset=".03" stop-color="#FFEB49"/><stop offset=".12" stop-color="#FFEB49" stop-opacity=".96"/><stop offset=".26" stop-color="#FFEB49" stop-opacity=".84"/><stop offset=".46" stop-color="#FFEB49" stop-opacity=".66"/><stop offset=".69" stop-color="#FFEB49" stop-opacity=".4"/><stop offset=".95" stop-color="#FFEB49" stop-opacity=".07"/><stop offset="1" stop-color="#FFEB49" stop-opacity="0"/></linearGradient><radialGradient id="h" cx="0" cy="0" r="1" gradientTransform="matrix(87.7565 0 0 87.7564 419.552 500.36)" gradientUnits="userSpaceOnUse"><stop stop-color="#FFEB49"/><stop offset=".05" stop-color="#FFE546" stop-opacity=".96"/><stop offset=".14" stop-color="#FFD73E" stop-opacity=".85"/><stop offset=".25" stop-color="#FFC031" stop-opacity=".68"/><stop offset=".38" stop-color="#FFA01F" stop-opacity=".44"/><stop offset=".53" stop-color="#FF7709" stop-opacity=".13"/><stop offset=".59" stop-color="#F60" stop-opacity="0"/></radialGradient><radialGradient id="u" cx="0" cy="0" r="1" gradientTransform="translate(-189.104 342.085)scale(294.129)" gradientUnits="userSpaceOnUse"><stop stop-color="#BE0449"/><stop offset="1" stop-color="#FB2872" stop-opacity=".07"/></radialGradient></defs></svg>