<svg xmlns="http://www.w3.org/2000/svg" fill="none" viewBox="0 0 600 600"><path fill="#fff" d="M516.002 258.279c.641-1.343.159-2.911-1.077-3.501-1.236-.591-2.759.02-3.4 1.364-.642 1.344-.16 2.912 1.077 3.502s2.758-.021 3.4-1.365"/><path fill="#fff" d="M472.289 239.879c.66-1.382.167-2.993-1.1-3.598-1.266-.605-2.829.026-3.488 1.408-.66 1.382-.168 2.993 1.099 3.598 1.267.604 2.829-.026 3.489-1.408"/><path fill="#7543E3" d="M433.418 478.436v68.79c0 11.941-9.706 21.647-21.647 21.647H156.313c-11.94 0-21.646-9.706-21.646-21.647v-68.79z"/><path fill="#FCF5F0" d="M433.418 53.735v416.612H134.667V53.735c0-11.925 9.706-21.646 21.646-21.646h255.458c11.941 0 21.647 9.721 21.647 21.646"/><path fill="url(#n)" d="M153.803 141.46c25.144-.262 28.287-4.422 34.234-4.483 3.235-.031 14.174.308 23.295-1.171 9.644-1.556 16.207-1.402 19.581-7.072 4.931-8.289-.169-13.943-7.04-17.301-5.516-2.681-12.88-3.482-18.812-5.162-7.796-2.203-11.755-3.774-16.254-6.193-9.198-4.93-22.093-5.9-27.871-5.423-15.668 1.31-22.493 3.158-26.268 4.96v38.502c4.175 1.602 8.489 3.436 19.135 3.312z"/><path fill="url(#o)" d="M415.501 401.847c-31.676 2.65-20.599 7.903-33.556 8.936-10.06.801-17.887 6.07-21.261 12.926-4.838 9.891 11.709 12.603 23.279 12.864 10.415.232 10.076 4.9 25.514 4.746 14.22-.154 20.106-1.772 23.942-2.851v-34.356c-6.748-2.142-14.143-2.573-17.934-2.265z"/><path fill="url(#p)" d="M252.805 357.137c4.098-.338 13.265.355 19.798 3.852 3.204 1.726 6.008 2.835 11.555 4.406 4.206 1.187 9.444 1.757 13.357 3.667 4.884 2.373 8.52 6.409 5.008 12.295-2.404 4.021-7.057 3.913-13.913 5.022-6.486 1.048-14.251.801-16.562.832-4.221.047-6.455 2.989-24.327 3.189-12.988.139-12.711-3.79-21.477-3.99-9.737-.216-23.68-2.511-19.597-10.831 2.835-5.762 9.429-10.214 17.887-10.877 10.908-.863 1.571-5.284 28.256-7.518z"/><path fill="url(#q)" d="M338.944 160.41c5.454-.462 17.672.462 26.376 5.131 4.283 2.295 8.012 3.774 15.392 5.854 5.608 1.587 12.587 2.342 17.81 4.884 6.501 3.174 11.339 8.535 6.671 16.377-3.205 5.362-9.398 5.223-18.534 6.687-8.644 1.386-18.997 1.063-22.047 1.094-5.624.061-8.613 3.99-32.416 4.237-17.302.184-16.917-5.054-28.61-5.316-12.988-.292-31.553-3.343-26.115-14.436 3.76-7.688 12.572-13.604 23.85-14.497 14.529-1.156 2.095-7.041 37.639-10.015z"/><path fill="url(#r)" d="M329.192 248.104c3.081.616 12.834-1.109 21.831.431 12.603 2.173 28.564 16.285 30.536 25.175 5.269 23.68-28.21 28.887-51.843 30.705-21.262 1.634-4.545 4.391-36.083 5.763-43.385 1.879-51.551-6.209-61.796-5.763-5.577.247-14.097 2.296-29.966.617-16.778-1.772-28.071-.909-34.434-10.354-9.29-13.819-.323-42.352 29.15-45.049 13.927-1.278 15.606-.077 23.156-4.668 15.406-9.367 40.519-13.928 50.518-13.681 42.107 1.048 40.52 13.157 58.946 16.839z"/><path fill="#00073A" d="M411.771 24H156.313c-16.424 0-29.735 13.311-29.735 29.735v493.491c0 16.424 13.311 29.735 29.735 29.735h255.458c16.424 0 29.735-13.311 29.735-29.735V53.735C441.506 37.31 428.195 24 411.771 24m21.646 523.226c0 11.94-9.706 21.646-21.646 21.646H156.313c-11.94 0-21.646-9.706-21.646-21.646v-68.791h298.75zm0-76.879h-298.75V53.735c0-11.925 9.706-21.646 21.646-21.646h255.458c11.94 0 21.646 9.721 21.646 21.646zm-267.629 43.231a16.2 16.2 0 0 1 4.745-11.463c2.943-2.927 6.98-4.745 11.463-4.745H383.13c8.951 0 16.208 7.257 16.208 16.208a16.2 16.2 0 0 1-4.745 11.463 16.2 16.2 0 0 1-11.463 4.745H181.996c-8.951 0-16.208-7.257-16.208-16.208"/><defs><linearGradient id="n" x1="186.927" x2="179.979" y1="162.629" y2="90.818" gradientUnits="userSpaceOnUse"><stop stop-color="#D0CED3"/><stop offset=".29" stop-color="#D9D7DB"/><stop offset=".77" stop-color="#F1F1F2"/><stop offset="1" stop-color="#fff"/></linearGradient><linearGradient id="o" x1="397.46" x2="396.52" y1="460.392" y2="409.797" gradientUnits="userSpaceOnUse"><stop stop-color="#D0CED3"/><stop offset=".29" stop-color="#D9D7DB"/><stop offset=".77" stop-color="#F1F1F2"/><stop offset="1" stop-color="#fff"/></linearGradient><linearGradient id="p" x1="255.455" x2="254.654" y1="406.1" y2="363.5" gradientUnits="userSpaceOnUse"><stop stop-color="#D0CED3"/><stop offset=".29" stop-color="#D9D7DB"/><stop offset=".77" stop-color="#F1F1F2"/><stop offset="1" stop-color="#fff"/></linearGradient><linearGradient id="q" x1="342.472" x2="341.409" y1="225.627" y2="168.884" gradientUnits="userSpaceOnUse"><stop stop-color="#D0CED3"/><stop offset=".29" stop-color="#D9D7DB"/><stop offset=".77" stop-color="#F1F1F2"/><stop offset="1" stop-color="#fff"/></linearGradient><linearGradient id="r" x1="273.712" x2="272.557" y1="335.522" y2="243.867" gradientUnits="userSpaceOnUse"><stop stop-color="#D0CED3"/><stop offset=".29" stop-color="#D9D7DB"/><stop offset=".77" stop-color="#F1F1F2"/><stop offset="1" stop-color="#fff"/></linearGradient></defs></svg>