<svg xmlns="http://www.w3.org/2000/svg" fill="none" viewBox="0 0 600 600"><path fill="url(#a)" d="M443.908 140.103c11.487-.967 37.144.968 55.422 10.774 8.965 4.808 16.835 7.933 32.337 12.313 11.789 3.332 26.45 4.918 37.414 10.25 13.677 6.664 23.832 17.929 14.01 34.399-6.712 11.265-19.754 10.964-38.937 14.058-18.152 2.919-39.905 2.237-46.331 2.316-11.821.127-18.088 8.378-68.084 8.917-36.351.381-35.558-10.615-60.119-11.17-27.275-.619-66.276-7.029-54.868-30.321 7.918-16.153 26.403-28.576 50.092-30.464 30.543-2.428 4.411-14.804 79.095-21.056z"/><path fill="url(#b)" d="M417.345 116.954c-2.427-7.013-18.961-3.903-28.941-12.249-3.126-2.618-5.474-8.965-7.251-15.311-1.539-5.554-2.634-11.123-3.38-14.217-2.967-12.36-5.315-20.817-10.868-39.334C361.716 18.501 353.307 3 345.167 1.174c-7.552-1.697-15.533 9.108-24.863 28.18-4.966 10.154-8.996 20.976-13.154 27.75-.253.413-.507.81-.761 1.175-.143.222-.302.46-.444.666-.254.365-11.551 1.063-16.359.65-.19-.015-.413-.19-.635-.444a6 6 0 0 1-.587-.809c-2.332-3.808-6.458-16.136-14.534-32.558-8.52-17.295-13.661-25.276-22.991-23.88-9.678 1.444-18.024 26.783-22.975 44.618-4.093 14.771-4.3 17.786-6.013 23.18-1.825 5.76-3.999 13.027-6.648 19.77-2.904 7.363-6.395 14.106-10.71 17.534-10.504 8.346-23.214 5.172-25.054 12.36-1.396 5.442 5.283 4.934 4.3 6.664-.111.206-.302.381-.508.555 19.516-.508 38.096 12.36 52.694 23.213 11.281 8.378 16.961 16.597 24.022 17.105 9.948.698 19.754-15.931 37.017-16.565 13.423-.492 26.974 18.247 36.541 17.358a9.4 9.4 0 0 0 1.428-.381.12.12 0 0 1 .127.032c.159-.048.317-.095.46-.159 4.253-1.888 7.553-4.665 20.357-17.295 13.36-13.185 37.573-23.768 58.818-24.641-.015 0-.031 0-.063-.015-4.633-2.317 4.601-2.698 2.666-8.267z"/><path fill="url(#c)" d="M333.522 167.712c-9.552.873-23.118-17.85-36.541-17.358-17.263.634-27.069 17.263-37.017 16.565-7.061-.492-12.741-8.727-24.023-17.105-14.597-10.837-33.161-23.721-52.693-23.213-2.682 2.174-12.154 1.555-12.614 8.06-.413 5.744 10.297 3.523 10.25 6.157-.064 3.586-7.791 5.03-7.791 8.615 0 9.029 7.791 1.238 39.365 25.435 16.819 12.884 13.9 37.065 12.377 64.149-.762 13.598-3.142 43.666-3.697 59.612-.413 11.551-.318 20.515-.318 35.16 0 2.603 161.683 2.603 161.683 1.032 0-18.755-1.174-23.245-1.238-38.747-.095-22.991-3.395-49.837-5.823-63.784-4.824-27.688-1.777-52.345 13.233-63.832 17.374-13.281 26.402-10.266 27.211-17.39.381-3.364-5.045-3.999-4.918-7.378.206-5.3 14.883-5.379 14.359-10.663-.619-6.22-8.076-6.553-10.583-7.775-21.246.873-45.458 11.472-58.818 24.642-12.805 12.629-16.105 15.422-20.357 17.294-.159.064-.318.111-.46.159"/><path fill="url(#d)" d="M333.522 167.712c-9.552.873-23.118-17.85-36.541-17.358-17.263.634-27.069 17.263-37.017 16.565-7.061-.492-12.741-8.727-24.023-17.105-14.597-10.837-33.161-23.721-52.693-23.213-2.682 2.174-12.154 1.555-12.614 8.06-.413 5.744 10.297 3.523 10.25 6.157-.064 3.586-7.791 5.03-7.791 8.615 0 9.029 7.791 1.238 39.365 25.435 16.819 12.884 13.9 37.065 12.377 64.149-.762 13.598-3.142 43.666-3.697 59.612-.413 11.551-.318 20.515-.318 35.16 0 2.603 161.683 2.603 161.683 1.032 0-18.755-1.174-23.245-1.238-38.747-.095-22.991-3.395-49.837-5.823-63.784-4.824-27.688-1.777-52.345 13.233-63.832 17.374-13.281 26.402-10.266 27.211-17.39.381-3.364-5.045-3.999-4.918-7.378.206-5.3 14.883-5.379 14.359-10.663-.619-6.22-8.076-6.553-10.583-7.775-21.246.873-45.458 11.472-58.818 24.642-12.805 12.629-16.105 15.422-20.357 17.294-.159.064-.318.111-.46.159" opacity=".6"/><path fill="#FFC635" d="M333.523 167.712c-3.236.634-6.616-1.159-10.123-3.824-7.949-5.189-17.136-13.788-26.259-13.55h-.159c-9.948.365-17.421 6.045-23.879 10.662-4.744 3.396-8.933 6.204-13.138 5.902h-.079l-2.793-.602c-3.11-1.143 6.045 40.095 40.714 39.444 35.828-.666 38.906-37.16 37.287-38.381-.047-.032-.079-.064-.127-.032a8 8 0 0 1-1.428.381z"/><path fill="#00073A" d="M298.868 187.006c-6.045-.064-9.345 2.475-10.313 4.871-1.19 2.951 1.348 9.155 8.774 9.234 7.061.079 11.154-5.664 10.25-8.949-.635-2.332-3.364-5.109-8.711-5.156"/><path fill="url(#e)" d="M289.604 59.612c-.19-.016-.412-.19-.634-.445l5.172 18.073 7.394-.524 4.443-17.755c-.254.365-11.551 1.063-16.359.65z"/><path fill="url(#f)" d="M344.915 68.656c14.566 8.504 29.513 17.056 36.256 20.753-1.539-5.553-2.634-11.122-3.38-14.216-2.967-12.36-5.315-20.817-10.868-39.334-5.189-17.342-13.598-32.844-21.738-34.669-7.552-1.698-15.533 9.108-24.863 28.18-4.966 10.154-8.997 20.975-13.154 27.75l-.349 1.19c8.013.238 23.562 1.889 38.081 10.346z"/><path fill="url(#g)" d="M288.397 58.342c-2.332-3.808-6.458-16.136-14.534-32.558-8.52-17.295-13.661-25.276-22.991-23.88-9.679 1.444-18.025 26.783-22.975 44.617-4.094 14.772-4.3 17.787-6.013 23.182-1.825 5.76-3.999 13.026-6.649 19.77 6.649-3.634 21.738-12.265 36.43-20.85 13.741-8.012 28.418-9.932 36.748-10.297z"/><path fill="url(#h)" d="M244.653 132.377c-1.65-1.016-3.396 1.221-1.999 2.586 3.252 3.205 8.266 6.235 15.787 6.918 9.06.825 15.311-1.762 19.484-4.919 1.587-1.206 0-3.649-1.761-2.745-5.03 2.555-11.821 4.554-19.548 2.999-4.728-.936-8.79-2.856-11.963-4.824z"/><path fill="url(#i)" d="M347.5 132.377c1.65-1.016 3.395 1.221 1.999 2.586-3.253 3.205-8.267 6.235-15.787 6.918-9.06.825-15.312-1.762-19.485-4.919-1.587-1.206 0-3.649 1.761-2.745 5.03 2.555 11.821 4.554 19.548 2.999 4.728-.936 8.79-2.856 11.964-4.824z"/><path fill="url(#j)" d="M380.711 229.323c-4.855-10.79-7.41-22.484-7.41-22.484v49.774c0 2.936-9.425 2.587-29.591 2.856-15.772.207-24.261-.841-29.068-12.915-5.173-12.995-9.901-14.709-12.44-13.804s-2.745 4.474-2.745 13.201c0 9.774-.27 12.217 2.555 16.66 4.934 7.791 25.117 16.676 41.872 21.452 16.755 4.76 31.987 5.95 46.188 1.682 11.583-3.475 12.376-12.725 6.997-26.767-3.411-8.886-11.519-18.834-16.374-29.64z"/><path fill="url(#k)" d="M379.06 278.224c7.346-4.728 9.774-9.076 9.774-9.076s-5.3 2.063-10.821 2.444c-7.267.507-10.917.428-12.646-.159-1.507-.524 4.109-3.142 7.933-5.95 7.854-5.76 8.029-10.821 8.029-10.821s-3.205 1.856-8.933 3.221c-1.269.714-3.935 1.063-8.06 1.253a59 59 0 0 1-5.411.159c-4.141.079-9.203.095-15.232.174-15.772.207-24.26-.841-29.068-12.915-5.172-12.995-9.901-14.709-12.439-13.804-1.524.539-2.206 2.062-2.507 5.061-.207 1.999-.238 4.649-.238 8.124 0 4.871-.064 7.933.222 10.313.285 2.396.92 4.126 2.332 6.363 4.935 7.791 25.117 16.676 41.873 21.452 14.28 4.062 27.433 5.506 39.809 3.205-10.71-2.396-18.469-5.458-17.39-5.188 1.397.349 8.981-1.413 12.741-3.84z"/><path fill="url(#l)" d="M297.426 232.734c-2.539-.905-7.267.809-12.44 13.804-4.808 12.074-13.296 13.122-29.068 12.915-20.167-.254-29.591.096-29.591-2.856v-49.774s-2.555 11.694-7.41 22.483-12.963 20.738-16.375 29.64c-5.379 14.042-4.569 23.292 6.998 26.767 14.216 4.268 29.448 3.078 46.188-1.682 16.755-4.76 36.938-13.661 41.872-21.452 2.824-4.443 2.555-6.886 2.555-16.66 0-8.727-.207-12.297-2.745-13.201z"/><path fill="url(#m)" d="M220.567 278.224c-7.346-4.728-9.774-9.076-9.774-9.076s5.299 2.063 10.821 2.444c7.267.507 10.916.428 12.646-.159 1.507-.524-4.11-3.142-7.933-5.95-7.855-5.76-8.029-10.821-8.029-10.821s3.205 1.856 8.933 3.221c1.269.714 3.935 1.063 8.06 1.253 1.698.127 3.507.191 5.411.159 4.141.079 9.203.095 15.232.174 15.771.207 24.26-.841 29.068-12.915 5.172-12.995 9.901-14.709 12.439-13.804 1.524.539 2.206 2.062 2.507 5.061.207 1.999.238 4.649.238 8.124 0 4.871.064 7.933-.222 10.313-.285 2.396-.92 4.126-2.332 6.363-4.935 7.791-25.117 16.676-41.873 21.452-14.28 4.062-27.433 5.506-39.809 3.205 10.71-2.396 18.469-5.458 17.39-5.188-1.397.349-8.981-1.413-12.741-3.84z"/><path fill="url(#n)" d="M446.525 382.199c-1.571-1.571-165.776-1.603-164.713-.54 2.555 2.555 10.98 6.014 12.948 6.823 14.645 6.061 18.611 6.632 32.066 12.392 17.374 7.457 34.035 19.96 34.606 39.572.65 22.562-20.595 38.001-39.128 41.206-7.33 1.269-12.82 2.491-24.942 1.428-9.06-.794-16.724-2.063-22.261-3.063-.952-.174-1.857-.333-2.682-.491-11.408-2.142-18.881-.159-18.881-.159s3.744.952 6.537 3.395a488 488 0 0 1 4.823 4.269s-9.901-1.666-13.137-1.73c-9.885-.19-18.739-.127-29.497 2.539-29.322 7.251-56.914 25.926-67.656 54.074 16.28-5.601 32.86-4.38 49.013 5.537 21.658 13.312 29.163 34.653 59.849 44.76 37.636 12.392 84.364 6.871 122.873-8.885 2.443-1 9.647-4.728 9.647-4.728s-.508 2.808-1.666 5.347a343 343 0 0 1-2.618 5.617s9.17-3.919 13.581-7.22c21.167-15.771 30.496-25.149 41.746-39.016 13.55-16.724 22.356-37.319 26.228-58.644 6.822-37.572-1.682-77.43-26.72-102.467z"/><path fill="url(#o)" d="M417.395 504.611c-15.867-9.362-27.545 6.838-38.144 19.214-10.774 12.583-41.857 24.991-67.926 32.765-17.072 5.078-37.62 7.981-37.62 7.981s15.486 3.729 28.655 3.983c15.74.301 32.654-.809 37.145-1.619-1.92 1.159-6.776 4.078-10.933 6.458-5.252 2.999-13.312 6.601-13.312 6.601s15.74 1.713 31.289-1.46c20.199-4.109 31.528-9.06 42.73-15.676 34.843-21.246 43.998-48.886 28.131-58.247z"/><path fill="url(#p)" d="M473.246 484.651c6.822-37.573-1.682-77.43-26.72-102.468-1.571-1.571-165.776-1.602-164.713-.539 2.555 2.554 10.98 6.013 12.947 6.822 14.645 6.062 18.612 6.633 32.067 12.392 17.374 7.458 34.034 19.961 34.606 39.572.65 22.563-20.595 38.001-39.128 41.206-7.33 1.269-12.82 2.491-24.942 1.428-9.06-.793-16.724-2.063-22.261-3.062v4.649z"/><path fill="url(#q)" d="M91.507 60.516c6.95-.587 22.499.587 33.574 6.521 5.443 2.92 10.203 4.808 19.58 7.457 7.14 2.016 16.025 2.983 22.658 6.204 8.282 4.03 14.438 10.853 8.488 20.833-4.062 6.823-11.963 6.649-23.594 8.521-10.995 1.777-24.18 1.364-28.068 1.396-7.156.079-10.948 5.078-41.253 5.395-22.023.238-21.547-6.426-36.415-6.775-16.533-.381-40.158-4.253-33.24-18.374 4.791-9.79 15.993-17.31 30.337-18.453 18.5-1.476 2.681-8.965 47.917-12.757z"/><path fill="url(#r)" d="M303.027 288.299c-19.913-.492-69.893 8.6-100.532 27.228-15.026 9.139-18.358 6.759-46.077 9.297-58.644 5.363-76.494 62.167-57.993 89.664 12.646 18.802 35.113 17.072 68.513 20.611 31.59 3.347 48.552-.746 59.659-1.222 20.404-.889 36.636 15.232 122.983 11.472 62.769-2.73 29.496-8.219 71.813-11.472 47.013-3.618 113.638-13.963 103.166-61.087-3.935-17.692-35.685-45.792-60.77-50.108-17.929-3.078-37.319.365-43.443-.856-36.652-7.331-33.511-31.417-117.287-33.511z"/><defs><linearGradient id="a" x1="457.728" x2="443.908" y1="278.874" y2="136.073" gradientUnits="userSpaceOnUse"><stop stop-color="#EFE7F7"/><stop offset=".5" stop-color="#F5F0FA"/><stop offset="1" stop-color="#fff"/></linearGradient><linearGradient id="b" x1="297.63" x2="303.438" y1="21.42" y2="723.557" gradientUnits="userSpaceOnUse"><stop stop-color="#F60"/><stop offset=".17" stop-color="#FF9C00"/><stop offset=".26" stop-color="#FF9200"/><stop offset=".39" stop-color="#FF7900"/><stop offset=".47" stop-color="#F60"/><stop offset=".53" stop-color="#FE5B13"/><stop offset=".65" stop-color="#FC453C"/><stop offset=".76" stop-color="#FB3559"/><stop offset=".85" stop-color="#FB2B6B"/><stop offset=".92" stop-color="#FB2872"/></linearGradient><linearGradient id="c" x1="297.298" x2="300.345" y1="52.107" y2="420.454" gradientUnits="userSpaceOnUse"><stop stop-color="#F60"/><stop offset=".27" stop-color="#FFB029"/><stop offset=".33" stop-color="#FFA623"/><stop offset=".43" stop-color="#FF8D15"/><stop offset=".55" stop-color="#F60"/><stop offset=".59" stop-color="#FE5B13"/><stop offset=".69" stop-color="#FC453C"/><stop offset=".78" stop-color="#FB3559"/><stop offset=".86" stop-color="#FB2B6B"/><stop offset=".92" stop-color="#FB2872"/></linearGradient><linearGradient id="e" x1="297.728" x2="297.094" y1="73.669" y2="37.652" gradientUnits="userSpaceOnUse"><stop stop-color="#D4002F" stop-opacity="0"/><stop offset=".88" stop-color="#D4002F"/></linearGradient><linearGradient id="f" x1="347.037" x2="364.551" y1="60.029" y2="-17.468" gradientUnits="userSpaceOnUse"><stop stop-color="#F60" stop-opacity="0"/><stop offset=".07" stop-color="#F60" stop-opacity=".2"/><stop offset=".21" stop-color="#F60" stop-opacity=".54"/><stop offset=".31" stop-color="#F60" stop-opacity=".79"/><stop offset=".39" stop-color="#F60" stop-opacity=".94"/><stop offset=".43" stop-color="#F60"/><stop offset=".72" stop-color="#FD4737"/><stop offset="1" stop-color="#FB2872"/></linearGradient><linearGradient id="g" x1="249.492" x2="231.978" y1="63.36" y2="-14.138" gradientUnits="userSpaceOnUse"><stop stop-color="#F60" stop-opacity="0"/><stop offset=".05" stop-color="#F60" stop-opacity=".1"/><stop offset=".17" stop-color="#F60" stop-opacity=".36"/><stop offset=".34" stop-color="#F60" stop-opacity=".76"/><stop offset=".43" stop-color="#F60"/><stop offset=".72" stop-color="#FD4737"/><stop offset="1" stop-color="#FB2872"/></linearGradient><linearGradient id="h" x1="260.361" x2="260.361" y1="111.528" y2="149.973" gradientUnits="userSpaceOnUse"><stop offset=".16" stop-color="#A030B9"/><stop offset=".88" stop-color="#00073A"/></linearGradient><linearGradient id="i" x1="331.792" x2="331.792" y1="111.528" y2="149.973" gradientUnits="userSpaceOnUse"><stop offset=".16" stop-color="#A030B9"/><stop offset=".88" stop-color="#00073A"/></linearGradient><linearGradient id="j" x1="345.693" x2="357.561" y1="272.702" y2="226.625" gradientUnits="userSpaceOnUse"><stop stop-color="#EF4533"/><stop offset=".38" stop-color="#F60"/><stop offset="1" stop-color="#FF9C00"/></linearGradient><linearGradient id="k" x1="452.38" x2="236.799" y1="276.97" y2="246.665" gradientUnits="userSpaceOnUse"><stop stop-color="#BE0449" stop-opacity="0"/><stop offset=".14" stop-color="#BE0449" stop-opacity=".01"/><stop offset=".22" stop-color="#BF054A" stop-opacity=".05"/><stop offset=".28" stop-color="#C1074B" stop-opacity=".12"/><stop offset=".34" stop-color="#C3094D" stop-opacity=".21"/><stop offset=".4" stop-color="#C60C50" stop-opacity=".33"/><stop offset=".45" stop-color="#CA1054" stop-opacity=".48"/><stop offset=".49" stop-color="#CF1558" stop-opacity=".66"/><stop offset=".54" stop-color="#D41B5C" stop-opacity=".86"/><stop offset=".57" stop-color="#D81F60"/><stop offset=".67" stop-color="#BA1F55"/><stop offset=".85" stop-color="#891F44"/><stop offset=".94" stop-color="#771F3E"/></linearGradient><linearGradient id="l" x1="253.935" x2="242.066" y1="272.702" y2="226.625" gradientUnits="userSpaceOnUse"><stop stop-color="#EF4533"/><stop offset=".38" stop-color="#F60"/><stop offset="1" stop-color="#FF9C00"/></linearGradient><linearGradient id="m" x1="147.247" x2="362.828" y1="276.97" y2="246.665" gradientUnits="userSpaceOnUse"><stop stop-color="#BE0449" stop-opacity="0"/><stop offset=".14" stop-color="#BE0449" stop-opacity=".01"/><stop offset=".22" stop-color="#BF054A" stop-opacity=".05"/><stop offset=".28" stop-color="#C1074B" stop-opacity=".12"/><stop offset=".34" stop-color="#C3094D" stop-opacity=".21"/><stop offset=".4" stop-color="#C60C50" stop-opacity=".33"/><stop offset=".45" stop-color="#CA1054" stop-opacity=".48"/><stop offset=".49" stop-color="#CF1558" stop-opacity=".66"/><stop offset=".54" stop-color="#D41B5C" stop-opacity=".86"/><stop offset=".57" stop-color="#D81F60"/><stop offset=".67" stop-color="#BA1F55"/><stop offset=".85" stop-color="#891F44"/><stop offset=".94" stop-color="#771F3E"/></linearGradient><linearGradient id="n" x1="180.059" x2="553.467" y1="654.012" y2="267.339" gradientUnits="userSpaceOnUse"><stop offset=".14" stop-color="#FFEB49"/><stop offset=".41" stop-color="#FF9B1D"/><stop offset=".6" stop-color="#F60"/><stop offset=".73" stop-color="#FD4835"/><stop offset=".85" stop-color="#FB3161"/><stop offset=".91" stop-color="#FB2872"/></linearGradient><linearGradient id="o" x1="273.979" x2="395.381" y1="571.132" y2="534.836" gradientUnits="userSpaceOnUse"><stop stop-color="#FFEB49"/><stop offset=".09" stop-color="#FFE847" stop-opacity=".96"/><stop offset=".24" stop-color="#FFE143" stop-opacity=".84"/><stop offset=".44" stop-color="#FFD63D" stop-opacity=".66"/><stop offset=".67" stop-color="#FFC735" stop-opacity=".4"/><stop offset=".94" stop-color="#FFB42B" stop-opacity=".07"/><stop offset="1" stop-color="#FFB029" stop-opacity="0"/></linearGradient><linearGradient id="p" x1="375.364" x2="373.158" y1="474.671" y2="351.671" gradientUnits="userSpaceOnUse"><stop stop-color="#FB2872" stop-opacity="0"/><stop offset=".88" stop-color="#FB2872"/></linearGradient><linearGradient id="q" x1="96.013" x2="94.649" y1="143.531" y2="71.289" gradientUnits="userSpaceOnUse"><stop stop-color="#EFE7F7"/><stop offset=".5" stop-color="#F5F0FA"/><stop offset="1" stop-color="#fff"/></linearGradient><linearGradient id="r" x1="309.929" x2="307.612" y1="495.773" y2="313.369" gradientUnits="userSpaceOnUse"><stop stop-color="#EFE7F7"/><stop offset=".5" stop-color="#F5F0FA"/><stop offset="1" stop-color="#fff"/></linearGradient><radialGradient id="d" cx="0" cy="0" r="1" gradientTransform="matrix(4.54039 236.46641 -361.79331 6.94679 308.497 159.536)" gradientUnits="userSpaceOnUse"><stop offset=".12" stop-color="#FFEB49"/><stop offset=".2" stop-color="#FFD53D" stop-opacity=".84"/><stop offset=".39" stop-color="#FFA623" stop-opacity=".48"/><stop offset=".55" stop-color="#FF8310" stop-opacity=".22"/><stop offset=".66" stop-color="#FF6E04" stop-opacity=".06"/><stop offset=".71" stop-color="#F60" stop-opacity="0"/></radialGradient></defs></svg>